<?xml version="1.0" encoding="UTF-8" standalone="no"?>
<!DOCTYPE svg PUBLIC "-//W3C//DTD SVG 1.1//EN" "http://www.w3.org/Graphics/SVG/1.1/DTD/svg11.dtd">
<!-- Created with Vectornator (http://vectornator.io/) -->
<svg height="100%" stroke-miterlimit="10" style="fill-rule:nonzero;clip-rule:evenodd;stroke-linecap:round;stroke-linejoin:round;" version="1.1" viewBox="0 0 1024 1024" width="100%" xml:space="preserve" xmlns="http://www.w3.org/2000/svg" xmlns:xlink="http://www.w3.org/1999/xlink">
<defs/>
<g id="图层-1">
<path d="M0 512C0 229.23 229.23 0 512 0C794.77 0 1024 229.23 1024 512C1024 794.77 794.77 1024 512 1024C229.23 1024 0 794.77 0 512Z" fill="#000000" fill-rule="nonzero" opacity="1" stroke="none"/>
<g opacity="1">
<path d="M252.127 621.351C269.217 621.351 284.451 618.055 297.83 611.463C311.209 604.871 321.988 595.777 330.167 584.18C338.345 572.583 343.094 559.29 344.412 544.3L344.559 542.762L301.492 542.762L301.199 544.227C299.344 552.576 296.17 559.705 291.678 565.613C287.186 571.521 281.607 576.038 274.942 579.163C268.277 582.288 260.696 583.851 252.2 583.851C240.97 583.851 231.18 580.945 222.83 575.135C214.48 569.324 208.035 561.023 203.494 550.232C198.953 539.441 196.683 526.648 196.683 511.854L196.683 511.707C196.683 496.912 198.953 484.18 203.494 473.511C208.035 462.842 214.456 454.615 222.757 448.829C231.058 443.042 240.848 440.149 252.127 440.149C260.965 440.149 268.716 441.749 275.381 444.947C282.046 448.145 287.527 452.625 291.824 458.387C296.121 464.148 299.1 470.936 300.76 478.748L301.346 481.238L344.412 481.238L344.266 479.847C342.947 464.856 338.223 451.563 330.093 439.966C321.963 428.37 311.221 419.251 297.867 412.61C284.512 405.97 269.266 402.649 252.127 402.649C231.57 402.649 213.76 407.02 198.697 415.76C183.633 424.5 172 437.012 163.797 453.296C155.594 469.581 151.492 489.075 151.492 511.78L151.492 511.927C151.492 534.632 155.582 554.151 163.76 570.484C171.939 586.817 183.572 599.378 198.66 608.167C213.748 616.956 231.57 621.351 252.127 621.351Z" fill="#ffffff" fill-rule="nonzero" opacity="1" stroke="none"/>
<path d="M411.805 617.688L451.209 617.688L451.209 474.793L471.644 474.793L427.405 412.171L509.51 617.688L537.269 617.688L619.373 412.171L575.135 474.793L595.569 474.793L595.569 617.688L634.974 617.688L634.974 406.312L583.851 406.312L523.865 558.289L522.913 558.289L462.928 406.312L411.805 406.312L411.805 617.688Z" fill="#ffffff" fill-rule="nonzero" opacity="1" stroke="none"/>
<path d="M787.327 621.351C805.101 621.351 820.347 618.653 833.067 613.257C845.787 607.862 855.54 600.196 862.327 590.259C869.114 580.323 872.508 568.592 872.508 555.066L872.508 554.92C872.508 538.27 867.356 525.196 857.054 515.699C846.751 506.202 830.516 499.231 808.348 494.788L786.009 490.32C773.851 487.83 764.939 484.546 759.275 480.469C753.611 476.392 750.779 471.009 750.779 464.319L750.779 464.173C750.779 459.144 752.232 454.712 755.137 450.879C758.042 447.046 762.217 444.043 767.662 441.871C773.106 439.698 779.588 438.611 787.107 438.611C794.432 438.611 800.901 439.686 806.517 441.834C812.132 443.982 816.661 447.022 820.103 450.953C823.545 454.883 825.633 459.632 826.365 465.198L826.585 466.956L868.333 466.956L868.187 464.246C867.503 451.893 863.829 441.089 857.164 431.836C850.499 422.583 841.233 415.406 829.368 410.303C817.503 405.201 803.416 402.649 787.107 402.649C771.531 402.649 757.676 405.323 745.542 410.669C733.409 416.016 723.887 423.487 716.978 433.082C710.069 442.676 706.59 453.919 706.541 466.81L706.541 466.956C706.541 482.874 711.814 495.826 722.361 505.811C732.908 515.796 748.582 522.864 769.383 527.015L791.722 531.482C804.856 534.168 814.231 537.537 819.847 541.59C825.462 545.643 828.27 551.233 828.27 558.362L828.27 558.509C828.27 563.88 826.646 568.592 823.399 572.645C820.152 576.697 815.562 579.834 809.629 582.056C803.697 584.278 796.629 585.389 788.426 585.389C780.418 585.389 773.252 584.29 766.929 582.093C760.606 579.896 755.467 576.807 751.512 572.828C747.557 568.848 745.091 564.148 744.114 558.729L743.821 557.044L702.073 557.044L702.22 559.461C703.05 572.4 707.029 583.497 714.158 592.75C721.287 602.002 731.077 609.083 743.528 613.99C755.979 618.897 770.579 621.351 787.327 621.351Z" fill="#ffffff" fill-rule="nonzero" opacity="1" stroke="none"/>
</g>
</g>
</svg>
