<?xml version="1.0" encoding="UTF-8" standalone="no"?>
<!DOCTYPE svg PUBLIC "-//W3C//DTD SVG 1.1//EN" "http://www.w3.org/Graphics/SVG/1.1/DTD/svg11.dtd">
<!-- Created with Vectornator (http://vectornator.io/) -->
<svg height="100%" stroke-miterlimit="10" style="fill-rule:nonzero;clip-rule:evenodd;stroke-linecap:round;stroke-linejoin:round;" version="1.1" viewBox="0 0 1024 1024" width="100%" xml:space="preserve" xmlns="http://www.w3.org/2000/svg" xmlns:xlink="http://www.w3.org/1999/xlink">
<defs/>
<g id="图层-1">
<path d="M0 512C0 229.23 229.23 0 512 0C794.77 0 1024 229.23 1024 512C1024 794.77 794.77 1024 512 1024C229.23 1024 0 794.77 0 512Z" fill="#000000" fill-rule="nonzero" opacity="1" stroke="none"/>
<g opacity="1">
<path d="M200.88 385.86C162.12 385.86 132.54 398.44 112.14 424.28C94.12 446.72 85.28 476.3 85.28 512.34C85.28 549.06 93.78 578.3 111.12 600.06C130.84 625.22 161.1 638.14 201.56 638.14C227.74 638.14 250.18 630.66 268.88 615.7C288.94 599.72 301.52 577.62 306.96 549.06L268.2 549.06C263.44 567.42 255.28 581.36 243.72 590.54C232.84 598.7 218.56 603.12 201.22 603.12C174.7 603.12 154.98 594.62 142.4 578.3C130.84 563 125.06 540.9 125.06 512.34C125.06 484.46 130.84 462.7 142.74 447.06C155.66 429.38 174.7 420.88 200.2 420.88C217.2 420.88 231.14 424.28 242.02 431.76C253.24 439.24 260.72 450.8 264.8 466.78L303.56 466.78C299.82 442.3 289.28 422.58 271.6 408.3C253.24 393.34 229.44 385.86 200.88 385.86Z" fill="#ffffff" fill-rule="nonzero" opacity="1" stroke="none"/>
<path d="M394.36 390.62L394.36 633.38L434.14 633.38L434.14 466.1L435.5 466.1L506.9 633.38L541.24 633.38L612.64 466.1L614 466.1L614 633.38L653.78 633.38L653.78 390.62L607.2 390.62L524.92 581.02L523.56 581.02L440.94 390.62L394.36 390.62Z" fill="#ffffff" fill-rule="nonzero" opacity="1" stroke="none"/>
<path d="M837.06 385.86C810.88 385.86 789.46 391.64 772.46 403.54C754.1 415.78 745.26 432.78 745.26 454.2C745.26 475.62 754.44 491.94 773.14 503.16C780.28 507.24 798.98 514.04 828.9 523.56C855.76 531.72 871.4 537.16 876.16 539.54C891.12 547.02 898.94 557.22 898.94 570.14C898.94 580.34 893.5 588.16 883.3 594.28C873.1 600.06 858.82 603.12 841.14 603.12C821.08 603.12 806.46 599.38 796.94 592.58C786.4 584.76 779.94 571.5 777.22 553.14L737.78 553.14C739.48 584.08 750.7 606.52 771.1 620.8C787.76 632.36 811.22 638.14 841.14 638.14C872.08 638.14 896.22 631.68 913.22 619.44C930.22 606.86 938.72 589.52 938.72 567.76C938.72 545.32 928.18 527.98 907.1 515.4C897.58 509.96 876.5 501.8 843.52 491.6C821.08 484.46 807.14 479.36 802.04 476.64C790.48 470.52 785.04 462.02 785.04 451.82C785.04 440.26 789.8 431.76 800 426.66C808.16 422.24 819.72 420.2 835.02 420.2C852.7 420.2 866.3 423.26 875.14 430.06C883.98 436.52 890.44 447.4 893.84 462.36L933.28 462.36C930.9 435.84 921.04 416.12 904.04 403.54C888.06 391.64 865.62 385.86 837.06 385.86Z" fill="#ffffff" fill-rule="nonzero" opacity="1" stroke="none"/>
</g>
</g>
</svg>
